<mxfile host="app.diagrams.net" modified="2022-05-07T12:01:25.083Z" agent="5.0 (X11; Linux x86_64) AppleWebKit/537.36 (KHTML, like Gecko) Chrome/101.0.4951.41 Safari/537.36" etag="god6mxouJfdZ8RHx9s90" version="17.4.0" type="github">
  <diagram id="KL2Ohyp1LxbO1DHhDgCb" name="Page-1">
    <mxGraphModel dx="1785" dy="574" grid="1" gridSize="10" guides="1" tooltips="1" connect="1" arrows="1" fold="1" page="1" pageScale="1" pageWidth="827" pageHeight="1169" math="0" shadow="0">
      <root>
        <mxCell id="0" />
        <mxCell id="1" parent="0" />
        <mxCell id="dHEH6WTepMTwWRjsG42G-12" style="edgeStyle=orthogonalEdgeStyle;rounded=0;orthogonalLoop=1;jettySize=auto;html=1;entryX=0.5;entryY=0;entryDx=0;entryDy=0;" edge="1" parent="1" source="dHEH6WTepMTwWRjsG42G-1" target="dHEH6WTepMTwWRjsG42G-6">
          <mxGeometry relative="1" as="geometry">
            <Array as="points">
              <mxPoint x="80" y="50" />
              <mxPoint x="80" y="140" />
              <mxPoint x="70" y="140" />
            </Array>
          </mxGeometry>
        </mxCell>
        <mxCell id="dHEH6WTepMTwWRjsG42G-13" style="edgeStyle=orthogonalEdgeStyle;rounded=0;orthogonalLoop=1;jettySize=auto;html=1;" edge="1" parent="1" source="dHEH6WTepMTwWRjsG42G-1" target="dHEH6WTepMTwWRjsG42G-7">
          <mxGeometry relative="1" as="geometry">
            <Array as="points">
              <mxPoint x="220" y="140" />
              <mxPoint x="200" y="140" />
            </Array>
          </mxGeometry>
        </mxCell>
        <mxCell id="dHEH6WTepMTwWRjsG42G-14" style="edgeStyle=orthogonalEdgeStyle;rounded=0;orthogonalLoop=1;jettySize=auto;html=1;entryX=0.659;entryY=-0.057;entryDx=0;entryDy=0;entryPerimeter=0;" edge="1" parent="1" source="dHEH6WTepMTwWRjsG42G-1" target="dHEH6WTepMTwWRjsG42G-8">
          <mxGeometry relative="1" as="geometry">
            <mxPoint x="290" y="150" as="targetPoint" />
            <Array as="points">
              <mxPoint x="320" y="150" />
              <mxPoint x="349" y="150" />
            </Array>
          </mxGeometry>
        </mxCell>
        <mxCell id="dHEH6WTepMTwWRjsG42G-15" style="edgeStyle=orthogonalEdgeStyle;rounded=0;orthogonalLoop=1;jettySize=auto;html=1;entryX=0.586;entryY=-0.037;entryDx=0;entryDy=0;entryPerimeter=0;" edge="1" parent="1" source="dHEH6WTepMTwWRjsG42G-1" target="dHEH6WTepMTwWRjsG42G-9">
          <mxGeometry relative="1" as="geometry">
            <Array as="points">
              <mxPoint x="430" y="140" />
              <mxPoint x="470" y="140" />
            </Array>
          </mxGeometry>
        </mxCell>
        <mxCell id="dHEH6WTepMTwWRjsG42G-16" style="edgeStyle=orthogonalEdgeStyle;rounded=0;orthogonalLoop=1;jettySize=auto;html=1;entryX=0.5;entryY=0;entryDx=0;entryDy=0;" edge="1" parent="1" source="dHEH6WTepMTwWRjsG42G-1" target="dHEH6WTepMTwWRjsG42G-10">
          <mxGeometry relative="1" as="geometry" />
        </mxCell>
        <mxCell id="dHEH6WTepMTwWRjsG42G-17" style="edgeStyle=orthogonalEdgeStyle;rounded=0;orthogonalLoop=1;jettySize=auto;html=1;" edge="1" parent="1" source="dHEH6WTepMTwWRjsG42G-1" target="dHEH6WTepMTwWRjsG42G-11">
          <mxGeometry relative="1" as="geometry" />
        </mxCell>
        <mxCell id="dHEH6WTepMTwWRjsG42G-18" style="edgeStyle=orthogonalEdgeStyle;rounded=0;orthogonalLoop=1;jettySize=auto;html=1;entryX=0.419;entryY=0.002;entryDx=0;entryDy=0;entryPerimeter=0;" edge="1" parent="1" source="dHEH6WTepMTwWRjsG42G-1" target="dHEH6WTepMTwWRjsG42G-4">
          <mxGeometry relative="1" as="geometry" />
        </mxCell>
        <mxCell id="dHEH6WTepMTwWRjsG42G-1" value="GIOVANNI PIOTTO / GIOCOMMA MARCHIORI PIOTTO&lt;br&gt;(ITALIANOS)" style="rounded=0;whiteSpace=wrap;html=1;" vertex="1" parent="1">
          <mxGeometry x="130" y="20" width="360" height="60" as="geometry" />
        </mxCell>
        <mxCell id="dHEH6WTepMTwWRjsG42G-4" value="BORTOLLO PIOTTO" style="whiteSpace=wrap;html=1;rounded=0;" vertex="1" parent="1">
          <mxGeometry x="-120" y="200" width="120" height="60" as="geometry" />
        </mxCell>
        <mxCell id="dHEH6WTepMTwWRjsG42G-20" style="edgeStyle=orthogonalEdgeStyle;rounded=0;orthogonalLoop=1;jettySize=auto;html=1;" edge="1" parent="1" source="dHEH6WTepMTwWRjsG42G-6" target="dHEH6WTepMTwWRjsG42G-19">
          <mxGeometry relative="1" as="geometry" />
        </mxCell>
        <mxCell id="dHEH6WTepMTwWRjsG42G-6" value="ANGELA PIOTTO" style="whiteSpace=wrap;html=1;rounded=0;" vertex="1" parent="1">
          <mxGeometry x="10" y="200" width="120" height="60" as="geometry" />
        </mxCell>
        <mxCell id="dHEH6WTepMTwWRjsG42G-7" value="ANTONIO PIOTTO" style="whiteSpace=wrap;html=1;rounded=0;" vertex="1" parent="1">
          <mxGeometry x="140" y="200" width="120" height="60" as="geometry" />
        </mxCell>
        <mxCell id="dHEH6WTepMTwWRjsG42G-8" value="HYGINO PIOTTO" style="whiteSpace=wrap;html=1;rounded=0;" vertex="1" parent="1">
          <mxGeometry x="270" y="200" width="120" height="60" as="geometry" />
        </mxCell>
        <mxCell id="dHEH6WTepMTwWRjsG42G-9" value="CATARINA PIOTTO" style="whiteSpace=wrap;html=1;rounded=0;" vertex="1" parent="1">
          <mxGeometry x="400" y="200" width="120" height="60" as="geometry" />
        </mxCell>
        <mxCell id="dHEH6WTepMTwWRjsG42G-10" value="JOANA PIOTTO" style="whiteSpace=wrap;html=1;rounded=0;" vertex="1" parent="1">
          <mxGeometry x="530" y="200" width="120" height="60" as="geometry" />
        </mxCell>
        <mxCell id="dHEH6WTepMTwWRjsG42G-11" value="MARCELA PIOTTO" style="whiteSpace=wrap;html=1;rounded=0;" vertex="1" parent="1">
          <mxGeometry x="660" y="200" width="120" height="60" as="geometry" />
        </mxCell>
        <mxCell id="dHEH6WTepMTwWRjsG42G-22" style="edgeStyle=orthogonalEdgeStyle;rounded=0;orthogonalLoop=1;jettySize=auto;html=1;entryX=0.16;entryY=0.55;entryDx=0;entryDy=0;entryPerimeter=0;" edge="1" parent="1" source="dHEH6WTepMTwWRjsG42G-19" target="dHEH6WTepMTwWRjsG42G-21">
          <mxGeometry relative="1" as="geometry" />
        </mxCell>
        <mxCell id="dHEH6WTepMTwWRjsG42G-30" style="edgeStyle=orthogonalEdgeStyle;rounded=0;orthogonalLoop=1;jettySize=auto;html=1;exitX=0.5;exitY=1;exitDx=0;exitDy=0;fontSize=12;" edge="1" parent="1" source="dHEH6WTepMTwWRjsG42G-19" target="dHEH6WTepMTwWRjsG42G-23">
          <mxGeometry relative="1" as="geometry">
            <Array as="points">
              <mxPoint x="70" y="360" />
              <mxPoint x="-20" y="360" />
              <mxPoint x="-20" y="420" />
              <mxPoint x="-60" y="420" />
            </Array>
          </mxGeometry>
        </mxCell>
        <mxCell id="dHEH6WTepMTwWRjsG42G-31" style="edgeStyle=orthogonalEdgeStyle;rounded=0;orthogonalLoop=1;jettySize=auto;html=1;entryX=0.5;entryY=0;entryDx=0;entryDy=0;fontSize=12;" edge="1" parent="1" source="dHEH6WTepMTwWRjsG42G-19" target="dHEH6WTepMTwWRjsG42G-24">
          <mxGeometry relative="1" as="geometry" />
        </mxCell>
        <mxCell id="dHEH6WTepMTwWRjsG42G-32" style="edgeStyle=orthogonalEdgeStyle;rounded=0;orthogonalLoop=1;jettySize=auto;html=1;entryX=0.429;entryY=0.031;entryDx=0;entryDy=0;entryPerimeter=0;fontSize=12;" edge="1" parent="1" source="dHEH6WTepMTwWRjsG42G-19" target="dHEH6WTepMTwWRjsG42G-25">
          <mxGeometry relative="1" as="geometry" />
        </mxCell>
        <mxCell id="dHEH6WTepMTwWRjsG42G-33" style="edgeStyle=orthogonalEdgeStyle;rounded=0;orthogonalLoop=1;jettySize=auto;html=1;fontSize=12;" edge="1" parent="1" source="dHEH6WTepMTwWRjsG42G-19" target="dHEH6WTepMTwWRjsG42G-26">
          <mxGeometry relative="1" as="geometry" />
        </mxCell>
        <mxCell id="dHEH6WTepMTwWRjsG42G-34" style="edgeStyle=orthogonalEdgeStyle;rounded=0;orthogonalLoop=1;jettySize=auto;html=1;entryX=0.419;entryY=-0.008;entryDx=0;entryDy=0;entryPerimeter=0;fontSize=12;" edge="1" parent="1" source="dHEH6WTepMTwWRjsG42G-19" target="dHEH6WTepMTwWRjsG42G-27">
          <mxGeometry relative="1" as="geometry" />
        </mxCell>
        <mxCell id="dHEH6WTepMTwWRjsG42G-19" value="ANGELA PIOTTO / ANTONIO GOBBO&lt;br&gt;(BISAVÃ“)" style="whiteSpace=wrap;html=1;rounded=0;" vertex="1" parent="1">
          <mxGeometry x="10" y="330" width="120" height="60" as="geometry" />
        </mxCell>
        <mxCell id="dHEH6WTepMTwWRjsG42G-21" value="CASAMENTO ENTRE&lt;br&gt;ANGELA PIOTTO E&lt;br&gt;ANTONIO GOBBO" style="ellipse;shape=cloud;whiteSpace=wrap;html=1;sketch=1;" vertex="1" parent="1">
          <mxGeometry x="340" y="250" width="170" height="110" as="geometry" />
        </mxCell>
        <mxCell id="dHEH6WTepMTwWRjsG42G-23" value="&lt;font style=&quot;font-size: 12px&quot;&gt;AMABILLE GOBBO&lt;/font&gt;" style="rounded=0;whiteSpace=wrap;html=1;sketch=1;fontSize=10;" vertex="1" parent="1">
          <mxGeometry x="-120" y="450" width="120" height="60" as="geometry" />
        </mxCell>
        <mxCell id="dHEH6WTepMTwWRjsG42G-24" value="&lt;font style=&quot;font-size: 12px&quot;&gt;ALBERTO GOBBO&lt;/font&gt;" style="rounded=0;whiteSpace=wrap;html=1;sketch=1;fontSize=10;" vertex="1" parent="1">
          <mxGeometry x="10" y="450" width="120" height="60" as="geometry" />
        </mxCell>
        <mxCell id="dHEH6WTepMTwWRjsG42G-38" style="edgeStyle=orthogonalEdgeStyle;rounded=0;orthogonalLoop=1;jettySize=auto;html=1;fontSize=12;" edge="1" parent="1" source="dHEH6WTepMTwWRjsG42G-25" target="dHEH6WTepMTwWRjsG42G-36">
          <mxGeometry relative="1" as="geometry" />
        </mxCell>
        <mxCell id="dHEH6WTepMTwWRjsG42G-25" value="&lt;font style=&quot;font-size: 12px&quot;&gt;SEVERINO GOBBO&lt;/font&gt;" style="rounded=0;whiteSpace=wrap;html=1;sketch=1;fontSize=10;" vertex="1" parent="1">
          <mxGeometry x="140" y="450" width="120" height="60" as="geometry" />
        </mxCell>
        <mxCell id="dHEH6WTepMTwWRjsG42G-26" value="&lt;font style=&quot;font-size: 12px&quot;&gt;JOSEFINA GOBBO&lt;/font&gt;" style="rounded=0;whiteSpace=wrap;html=1;sketch=1;fontSize=10;" vertex="1" parent="1">
          <mxGeometry x="270" y="450" width="120" height="60" as="geometry" />
        </mxCell>
        <mxCell id="dHEH6WTepMTwWRjsG42G-27" value="&lt;font style=&quot;font-size: 12px&quot;&gt;JOSÃ‰ GOBBO&lt;/font&gt;" style="rounded=0;whiteSpace=wrap;html=1;sketch=1;fontSize=10;" vertex="1" parent="1">
          <mxGeometry x="400" y="450" width="120" height="60" as="geometry" />
        </mxCell>
        <mxCell id="dHEH6WTepMTwWRjsG42G-35" value="CASAMENTO ENTRE&lt;br&gt;ANA PALARETTI E&lt;br&gt;SEVERINO GOBBO" style="ellipse;shape=cloud;whiteSpace=wrap;html=1;sketch=1;" vertex="1" parent="1">
          <mxGeometry x="450" y="520" width="170" height="110" as="geometry" />
        </mxCell>
        <mxCell id="dHEH6WTepMTwWRjsG42G-45" style="edgeStyle=orthogonalEdgeStyle;rounded=0;orthogonalLoop=1;jettySize=auto;html=1;fontSize=12;" edge="1" parent="1" source="dHEH6WTepMTwWRjsG42G-36" target="dHEH6WTepMTwWRjsG42G-39">
          <mxGeometry relative="1" as="geometry" />
        </mxCell>
        <mxCell id="dHEH6WTepMTwWRjsG42G-46" style="edgeStyle=orthogonalEdgeStyle;rounded=0;orthogonalLoop=1;jettySize=auto;html=1;entryX=0.5;entryY=0;entryDx=0;entryDy=0;fontSize=12;" edge="1" parent="1" source="dHEH6WTepMTwWRjsG42G-36" target="dHEH6WTepMTwWRjsG42G-44">
          <mxGeometry relative="1" as="geometry" />
        </mxCell>
        <mxCell id="dHEH6WTepMTwWRjsG42G-47" style="edgeStyle=orthogonalEdgeStyle;rounded=0;orthogonalLoop=1;jettySize=auto;html=1;entryX=0.5;entryY=0;entryDx=0;entryDy=0;fontSize=12;" edge="1" parent="1" source="dHEH6WTepMTwWRjsG42G-36" target="dHEH6WTepMTwWRjsG42G-43">
          <mxGeometry relative="1" as="geometry" />
        </mxCell>
        <mxCell id="dHEH6WTepMTwWRjsG42G-48" style="edgeStyle=orthogonalEdgeStyle;rounded=0;orthogonalLoop=1;jettySize=auto;html=1;entryX=0.5;entryY=0;entryDx=0;entryDy=0;fontSize=12;" edge="1" parent="1" source="dHEH6WTepMTwWRjsG42G-36" target="dHEH6WTepMTwWRjsG42G-42">
          <mxGeometry relative="1" as="geometry" />
        </mxCell>
        <mxCell id="dHEH6WTepMTwWRjsG42G-49" style="edgeStyle=orthogonalEdgeStyle;rounded=0;orthogonalLoop=1;jettySize=auto;html=1;entryX=0.5;entryY=0;entryDx=0;entryDy=0;fontSize=12;" edge="1" parent="1" source="dHEH6WTepMTwWRjsG42G-36" target="dHEH6WTepMTwWRjsG42G-41">
          <mxGeometry relative="1" as="geometry" />
        </mxCell>
        <mxCell id="dHEH6WTepMTwWRjsG42G-51" style="edgeStyle=orthogonalEdgeStyle;rounded=0;orthogonalLoop=1;jettySize=auto;html=1;entryX=0.419;entryY=-0.057;entryDx=0;entryDy=0;entryPerimeter=0;fontSize=12;" edge="1" parent="1" source="dHEH6WTepMTwWRjsG42G-36" target="dHEH6WTepMTwWRjsG42G-40">
          <mxGeometry relative="1" as="geometry" />
        </mxCell>
        <mxCell id="dHEH6WTepMTwWRjsG42G-52" style="edgeStyle=orthogonalEdgeStyle;rounded=0;orthogonalLoop=1;jettySize=auto;html=1;entryX=0.16;entryY=0.55;entryDx=0;entryDy=0;entryPerimeter=0;fontSize=12;" edge="1" parent="1" source="dHEH6WTepMTwWRjsG42G-36" target="dHEH6WTepMTwWRjsG42G-35">
          <mxGeometry relative="1" as="geometry" />
        </mxCell>
        <mxCell id="dHEH6WTepMTwWRjsG42G-36" value="&lt;font style=&quot;font-size: 12px&quot;&gt;ANA PALARETTI / SEVERINO GOBBO (AVÃ“S)&lt;/font&gt;" style="rounded=0;whiteSpace=wrap;html=1;sketch=1;fontSize=10;" vertex="1" parent="1">
          <mxGeometry x="140" y="560" width="120" height="60" as="geometry" />
        </mxCell>
        <mxCell id="dHEH6WTepMTwWRjsG42G-39" value="&lt;font style=&quot;font-size: 12px&quot;&gt;APARECIDA INÃŠS GOBBO&lt;/font&gt;" style="rounded=0;whiteSpace=wrap;html=1;sketch=1;fontSize=10;" vertex="1" parent="1">
          <mxGeometry x="-250" y="700" width="120" height="60" as="geometry" />
        </mxCell>
        <mxCell id="dHEH6WTepMTwWRjsG42G-40" value="&lt;font style=&quot;font-size: 12px&quot;&gt;ROBERTO JOSÃ‰ GOBBO&lt;/font&gt;" style="rounded=0;whiteSpace=wrap;html=1;sketch=1;fontSize=10;" vertex="1" parent="1">
          <mxGeometry x="400" y="700" width="120" height="60" as="geometry" />
        </mxCell>
        <mxCell id="dHEH6WTepMTwWRjsG42G-41" value="&lt;font style=&quot;font-size: 12px&quot;&gt;REGINA GAS GRAÃ‡AS GOBBO&lt;/font&gt;" style="rounded=0;whiteSpace=wrap;html=1;sketch=1;fontSize=10;" vertex="1" parent="1">
          <mxGeometry x="270" y="700" width="120" height="60" as="geometry" />
        </mxCell>
        <mxCell id="dHEH6WTepMTwWRjsG42G-42" value="&lt;font style=&quot;font-size: 12px&quot;&gt;MARIA ANGELINA GOBBO&lt;/font&gt;" style="rounded=0;whiteSpace=wrap;html=1;sketch=1;fontSize=10;" vertex="1" parent="1">
          <mxGeometry x="140" y="700" width="120" height="60" as="geometry" />
        </mxCell>
        <mxCell id="dHEH6WTepMTwWRjsG42G-43" value="&lt;font style=&quot;font-size: 12px&quot;&gt;JAIR JOSÃ‰ GOBBO&lt;/font&gt;" style="rounded=0;whiteSpace=wrap;html=1;sketch=1;fontSize=10;" vertex="1" parent="1">
          <mxGeometry x="10" y="700" width="120" height="60" as="geometry" />
        </mxCell>
        <mxCell id="dHEH6WTepMTwWRjsG42G-56" style="edgeStyle=orthogonalEdgeStyle;rounded=0;orthogonalLoop=1;jettySize=auto;html=1;fontSize=12;" edge="1" parent="1" source="dHEH6WTepMTwWRjsG42G-44" target="dHEH6WTepMTwWRjsG42G-54">
          <mxGeometry relative="1" as="geometry" />
        </mxCell>
        <mxCell id="dHEH6WTepMTwWRjsG42G-44" value="&lt;font style=&quot;font-size: 12px&quot;&gt;MILTON ANTONIO GOBBO&lt;/font&gt;" style="rounded=0;whiteSpace=wrap;html=1;sketch=1;fontSize=10;" vertex="1" parent="1">
          <mxGeometry x="-120" y="700" width="120" height="60" as="geometry" />
        </mxCell>
        <mxCell id="dHEH6WTepMTwWRjsG42G-53" value="CASAMENTO ENTRE&lt;br&gt;MILTON ANTONIO GOBBO E&lt;br&gt;LUZIA SUELY GONÃ‡ALVES" style="ellipse;shape=cloud;whiteSpace=wrap;html=1;sketch=1;" vertex="1" parent="1">
          <mxGeometry x="280" y="790" width="285" height="150" as="geometry" />
        </mxCell>
        <mxCell id="dHEH6WTepMTwWRjsG42G-55" style="edgeStyle=orthogonalEdgeStyle;rounded=0;orthogonalLoop=1;jettySize=auto;html=1;entryX=0.07;entryY=0.4;entryDx=0;entryDy=0;entryPerimeter=0;fontSize=12;" edge="1" parent="1" source="dHEH6WTepMTwWRjsG42G-54" target="dHEH6WTepMTwWRjsG42G-53">
          <mxGeometry relative="1" as="geometry" />
        </mxCell>
        <mxCell id="dHEH6WTepMTwWRjsG42G-59" style="edgeStyle=orthogonalEdgeStyle;rounded=0;orthogonalLoop=1;jettySize=auto;html=1;fontSize=12;" edge="1" parent="1" source="dHEH6WTepMTwWRjsG42G-54" target="dHEH6WTepMTwWRjsG42G-58">
          <mxGeometry relative="1" as="geometry" />
        </mxCell>
        <mxCell id="dHEH6WTepMTwWRjsG42G-60" style="edgeStyle=orthogonalEdgeStyle;rounded=0;orthogonalLoop=1;jettySize=auto;html=1;fontSize=12;" edge="1" parent="1" source="dHEH6WTepMTwWRjsG42G-54" target="dHEH6WTepMTwWRjsG42G-57">
          <mxGeometry relative="1" as="geometry" />
        </mxCell>
        <mxCell id="dHEH6WTepMTwWRjsG42G-54" value="&lt;font style=&quot;font-size: 12px&quot;&gt;MILTON ANTONIO GOBBO / LUZIA SUELY GONÃ‡AVES&lt;/font&gt;" style="rounded=0;whiteSpace=wrap;html=1;sketch=1;fontSize=10;" vertex="1" parent="1">
          <mxGeometry x="-120" y="850" width="120" height="60" as="geometry" />
        </mxCell>
        <mxCell id="dHEH6WTepMTwWRjsG42G-70" style="edgeStyle=orthogonalEdgeStyle;rounded=0;orthogonalLoop=1;jettySize=auto;html=1;entryX=0;entryY=0.5;entryDx=0;entryDy=0;fontSize=12;" edge="1" parent="1" source="dHEH6WTepMTwWRjsG42G-57" target="dHEH6WTepMTwWRjsG42G-69">
          <mxGeometry relative="1" as="geometry" />
        </mxCell>
        <mxCell id="dHEH6WTepMTwWRjsG42G-57" value="&lt;font style=&quot;font-size: 12px&quot;&gt;MILTON ANTONIO GOBBO JUNIOR&lt;/font&gt;" style="rounded=0;whiteSpace=wrap;html=1;sketch=1;fontSize=10;" vertex="1" parent="1">
          <mxGeometry x="-80" y="1000" width="120" height="60" as="geometry" />
        </mxCell>
        <mxCell id="dHEH6WTepMTwWRjsG42G-63" style="edgeStyle=orthogonalEdgeStyle;rounded=0;orthogonalLoop=1;jettySize=auto;html=1;fontSize=12;" edge="1" parent="1" source="dHEH6WTepMTwWRjsG42G-58" target="dHEH6WTepMTwWRjsG42G-62">
          <mxGeometry relative="1" as="geometry" />
        </mxCell>
        <mxCell id="dHEH6WTepMTwWRjsG42G-58" value="&lt;font style=&quot;font-size: 12px&quot;&gt;MATEUS EDUARDO GOBBO&lt;/font&gt;" style="rounded=0;whiteSpace=wrap;html=1;sketch=1;fontSize=10;" vertex="1" parent="1">
          <mxGeometry x="-230" y="1000" width="120" height="60" as="geometry" />
        </mxCell>
        <mxCell id="dHEH6WTepMTwWRjsG42G-61" value="CASAMENTO &lt;br&gt;ENTRE &lt;br&gt;&lt;br&gt;&lt;br&gt;MATEUS EDUARDO GOBBO &lt;br&gt;E NAIARA DE OLIVEIRA" style="ellipse;shape=cloud;whiteSpace=wrap;html=1;sketch=1;" vertex="1" parent="1">
          <mxGeometry x="-60" y="1080" width="220" height="150" as="geometry" />
        </mxCell>
        <mxCell id="dHEH6WTepMTwWRjsG42G-64" style="edgeStyle=orthogonalEdgeStyle;rounded=0;orthogonalLoop=1;jettySize=auto;html=1;entryX=0.16;entryY=0.55;entryDx=0;entryDy=0;entryPerimeter=0;fontSize=12;" edge="1" parent="1" source="dHEH6WTepMTwWRjsG42G-62" target="dHEH6WTepMTwWRjsG42G-61">
          <mxGeometry relative="1" as="geometry" />
        </mxCell>
        <mxCell id="dHEH6WTepMTwWRjsG42G-67" style="edgeStyle=orthogonalEdgeStyle;rounded=0;orthogonalLoop=1;jettySize=auto;html=1;fontSize=12;" edge="1" parent="1" source="dHEH6WTepMTwWRjsG42G-62" target="dHEH6WTepMTwWRjsG42G-65">
          <mxGeometry relative="1" as="geometry" />
        </mxCell>
        <mxCell id="dHEH6WTepMTwWRjsG42G-68" style="edgeStyle=orthogonalEdgeStyle;rounded=0;orthogonalLoop=1;jettySize=auto;html=1;fontSize=12;" edge="1" parent="1" source="dHEH6WTepMTwWRjsG42G-62" target="dHEH6WTepMTwWRjsG42G-66">
          <mxGeometry relative="1" as="geometry" />
        </mxCell>
        <mxCell id="dHEH6WTepMTwWRjsG42G-62" value="&lt;font style=&quot;font-size: 12px&quot;&gt;MATEUS EDUARDO GOBBO /&amp;nbsp; NAIARA DE OLIVEIRA&lt;/font&gt;" style="rounded=0;whiteSpace=wrap;html=1;sketch=1;fontSize=10;" vertex="1" parent="1">
          <mxGeometry x="-230" y="1125" width="120" height="65" as="geometry" />
        </mxCell>
        <mxCell id="dHEH6WTepMTwWRjsG42G-65" value="&lt;font style=&quot;font-size: 12px&quot;&gt;ISABELA DE OLIVEIRA GOBBO&lt;/font&gt;" style="rounded=0;whiteSpace=wrap;html=1;sketch=1;fontSize=10;" vertex="1" parent="1">
          <mxGeometry x="-250" y="1270" width="120" height="60" as="geometry" />
        </mxCell>
        <mxCell id="dHEH6WTepMTwWRjsG42G-66" value="&lt;font style=&quot;font-size: 12px&quot;&gt;MARINA DE OLIVEIRA GOBBO&lt;/font&gt;" style="rounded=0;whiteSpace=wrap;html=1;sketch=1;fontSize=10;" vertex="1" parent="1">
          <mxGeometry x="-120" y="1270" width="120" height="60" as="geometry" />
        </mxCell>
        <mxCell id="dHEH6WTepMTwWRjsG42G-72" style="edgeStyle=orthogonalEdgeStyle;rounded=0;orthogonalLoop=1;jettySize=auto;html=1;entryX=0.16;entryY=0.55;entryDx=0;entryDy=0;entryPerimeter=0;fontSize=12;" edge="1" parent="1" source="dHEH6WTepMTwWRjsG42G-69" target="dHEH6WTepMTwWRjsG42G-71">
          <mxGeometry relative="1" as="geometry" />
        </mxCell>
        <mxCell id="dHEH6WTepMTwWRjsG42G-69" value="&lt;font style=&quot;font-size: 12px&quot;&gt;LUCCA GOBBO&lt;/font&gt;" style="rounded=0;whiteSpace=wrap;html=1;sketch=1;fontSize=10;" vertex="1" parent="1">
          <mxGeometry x="110" y="1000" width="120" height="60" as="geometry" />
        </mxCell>
        <mxCell id="dHEH6WTepMTwWRjsG42G-71" value="FILHO DE &lt;br&gt;MILTON ANTONIO GOBBO &lt;br&gt;JUNIOR" style="ellipse;shape=cloud;whiteSpace=wrap;html=1;sketch=1;" vertex="1" parent="1">
          <mxGeometry x="315" y="960" width="220" height="90" as="geometry" />
        </mxCell>
      </root>
    </mxGraphModel>
  </diagram>
</mxfile>
